<svg width="32" height="26" viewBox="0 0 32 26" fill="none" xmlns="http://www.w3.org/2000/svg">
<path d="M31.6804 2.30518C31.6422 2.36686 31.6005 2.42615 31.5553 2.48274L20.6365 15.0821C20.0569 15.7509 19.3439 16.2866 18.5448 16.6535C17.7457 17.0205 16.8788 17.2103 16.0019 17.2103C15.1251 17.2103 14.2583 17.0205 13.4592 16.6535C12.6601 16.2866 11.9471 15.7509 11.3675 15.0821L0.305711 2.32534C0.103497 2.80197 -0.000532146 3.31563 2.04692e-06 3.83468V18.2783C2.04692e-06 20.069 0.699885 21.7863 1.94561 23.0525C3.19134 24.3187 4.88088 25.03 6.64261 25.03H25.3593C26.2316 25.03 27.0953 24.8554 27.9011 24.516C28.7069 24.1767 29.4391 23.6793 30.0557 23.0524C30.6724 22.4254 31.1615 21.6811 31.4951 20.8619C31.8287 20.0428 32.0003 19.1649 32 18.2783V3.83468C31.9984 3.3079 31.8895 2.78716 31.6804 2.30518Z" fill="white"/>
<path d="M13.8415 12.8536C14.1098 13.1624 14.4396 13.4098 14.809 13.5792C15.1785 13.7486 15.5792 13.8362 15.9845 13.8362C16.3898 13.8362 16.7906 13.7486 17.1601 13.5792C17.5296 13.4098 17.8594 13.1624 18.1276 12.8536L29.0464 0.252229C29.0863 0.209904 29.1286 0.170132 29.1734 0.133165C28.8562 0.0458973 28.5292 0.00113762 28.2006 0H3.76049C3.43875 0.00173625 3.11857 0.0451234 2.80762 0.129132L13.8415 12.8536Z" fill="white"/>
</svg>
